<svg xmlns="http://www.w3.org/2000/svg" viewBox="0 0 200 200" width="200" height="200">
  <title>Claude Status</title>
  <rect width="200" height="200" rx="44" fill="#0b0d10"/>
  <ellipse cx="100" cy="170" rx="46" ry="5" fill="#000" opacity="0.35"/>
  <ellipse cx="74" cy="160" rx="12" ry="5" fill="#2a8f9b"/>
  <ellipse cx="126" cy="160" rx="12" ry="5" fill="#2a8f9b"/>
  <path d="M 44 96 C 44 56 156 56 156 96 L 156 140 C 156 168 44 168 44 140 Z" fill="#3fb6c4" stroke="#1e6f7a" stroke-width="3"/>
  <ellipse cx="100" cy="76" rx="52" ry="20" fill="#54c8d6"/>
  <circle cx="78" cy="98" r="9" fill="#0b0d10"/>
  <circle cx="122" cy="98" r="9" fill="#0b0d10"/>
  <circle cx="81" cy="95" r="2.6" fill="#e6e8eb"/>
  <circle cx="125" cy="95" r="2.6" fill="#e6e8eb"/>
  <path d="M 86 124 Q 100 138 114 124" fill="none" stroke="#0b0d10" stroke-width="4" stroke-linecap="round"/>
  <g transform="translate(100 148)">
    <circle r="13" fill="#0b0d10" stroke="#1e6f7a" stroke-width="2"/>
    <line x1="0" y1="0" x2="0" y2="-9" stroke="#f59ab2" stroke-width="2.5" stroke-linecap="round"/>
    <circle r="2" fill="#54c8d6"/>
  </g>
</svg>
